<?xml version="1.0" standalone="no"?>
<!DOCTYPE svg PUBLIC "-//W3C//DTD SVG 20010904//EN"
 "http://www.w3.org/TR/2001/REC-SVG-20010904/DTD/svg10.dtd">
<svg version="1.0" xmlns="http://www.w3.org/2000/svg"
 width="541.000000pt" height="541.000000pt" viewBox="0 0 541.000000 541.000000"
 preserveAspectRatio="xMidYMid meet">
<metadata>
Created by potrace 1.11, written by Peter Selinger 2001-2013
</metadata>
<g transform="translate(0.000000,541.000000) scale(0.100000,-0.100000)"
fill="#000000" stroke="none">
<path d="M3310 4688 c0 -5 -6 -8 -14 -8 -7 0 -19 -13 -26 -30 -7 -16 -16 -28
-20 -25 -3 2 -6 -10 -5 -28 1 -18 -3 -35 -9 -39 -8 -5 -7 -8 2 -8 10 0 10 -5
2 -20 -6 -11 -7 -20 -2 -20 5 0 9 -7 9 -15 0 -8 -5 -15 -10 -15 -5 0 -4 -6 2
-14 13 -15 11 -37 -4 -48 -7 -5 -7 -10 0 -15 15 -12 18 -43 4 -43 -7 0 -8 -4
-2 -12 8 -12 10 -30 3 -43 -7 -13 -5 -31 3 -42 5 -7 6 -13 1 -13 -5 0 -9 -15
-9 -34 0 -19 4 -32 9 -28 5 3 6 0 2 -6 -11 -17 -14 -72 -5 -78 5 -3 6 -11 2
-17 -11 -18 -11 -47 1 -47 6 0 5 -5 -2 -12 -13 -13 -16 -32 -4 -24 12 7 9 -58
-3 -66 -7 -5 -7 -11 0 -15 14 -11 15 -53 1 -53 -6 0 -5 -4 3 -9 13 -8 13 -12
0 -27 -12 -16 -12 -17 1 -9 13 8 13 7 1 -8 -7 -9 -9 -17 -4 -17 12 0 11 -73
-2 -82 -6 -5 -5 -8 3 -8 9 0 10 -5 3 -17 -5 -10 -5 -26 0 -40 6 -16 5 -23 -4
-23 -8 0 -7 -3 2 -9 13 -8 13 -12 0 -27 -12 -16 -12 -17 1 -9 13 8 13 7 1 -8
-7 -9 -9 -17 -4 -17 10 0 10 -96 0 -106 -3 -4 -2 -15 3 -25 6 -10 7 -20 2 -23
-9 -5 -8 -47 1 -63 4 -7 4 -14 -1 -17 -9 -5 -9 -47 1 -62 3 -5 2 -16 -3 -24
-5 -8 -4 -22 2 -34 14 -25 13 -26 -4 -37 -10 -7 -10 -9 2 -9 13 0 13 -2 1 -9
-14 -9 -43 8 -35 20 2 3 -2 6 -9 6 -17 1 -41 7 -47 13 -13 13 -166 81 -177 79
-9 -2 -38 7 -63 20 -8 4 -25 7 -37 6 -13 -1 -23 2 -23 6 0 4 -11 6 -25 4 -14
-1 -28 1 -30 5 -3 5 -13 7 -23 5 -9 -1 -25 2 -36 7 -13 7 -16 7 -12 -1 4 -6 3
-11 -3 -11 -5 0 -12 3 -15 8 -8 13 -181 5 -291 -13 -16 -3 -40 -6 -52 -7 -13
-1 -23 -5 -23 -8 0 -5 -18 -9 -57 -12 -7 -1 -13 -5 -13 -8 0 -7 -58 -24 -72
-21 -5 0 -8 -4 -8 -10 0 -5 -4 -8 -9 -4 -5 3 -16 -2 -25 -10 -8 -9 -19 -16
-23 -15 -18 0 -43 -12 -43 -21 0 -5 -9 -9 -20 -9 -11 0 -20 -5 -20 -11 0 -5
-4 -8 -9 -5 -5 3 -12 -1 -15 -10 -3 -8 -10 -13 -15 -10 -5 3 -12 -1 -15 -10
-4 -9 -13 -14 -21 -10 -9 3 -15 0 -15 -9 0 -8 -6 -15 -14 -15 -8 0 -16 -7 -20
-15 -3 -8 -12 -15 -20 -15 -7 0 -17 -7 -20 -16 -3 -8 -10 -12 -16 -9 -5 3 -10
-1 -10 -9 0 -8 -9 -18 -21 -21 -11 -4 -18 -9 -15 -12 3 -3 -18 -27 -45 -54
-28 -27 -48 -49 -43 -49 4 0 -3 -9 -16 -20 -13 -11 -19 -20 -14 -20 5 0 2 -6
-7 -13 -8 -7 -24 -27 -34 -44 -11 -18 -23 -33 -28 -33 -4 0 -5 -4 -2 -10 3 -5
1 -10 -5 -10 -6 0 -9 -4 -5 -9 3 -5 -2 -16 -10 -24 -8 -9 -15 -20 -15 -26 0
-6 -4 -11 -10 -11 -5 0 -7 -7 -4 -15 4 -8 1 -15 -6 -15 -6 0 -8 -4 -5 -10 3
-5 1 -10 -5 -10 -6 0 -9 -4 -5 -9 3 -5 -2 -17 -11 -25 -11 -12 -12 -16 -2 -16
8 0 9 -3 3 -8 -10 -7 -33 -62 -41 -97 -2 -11 -6 -30 -9 -42 -13 -59 -15 -70
-17 -95 -1 -16 -5 -28 -8 -28 -3 0 -5 -56 -5 -125 -1 -69 2 -125 5 -125 3 0 6
-12 6 -27 3 -56 8 -93 14 -93 3 0 7 -11 8 -25 1 -14 3 -36 4 -49 1 -14 6 -22
10 -20 8 5 12 -11 9 -30 -1 -4 6 -20 15 -33 11 -18 12 -23 3 -18 -9 6 -9 2 2
-11 9 -10 22 -35 29 -54 7 -19 20 -43 28 -53 8 -9 12 -20 9 -24 -4 -3 1 -13
11 -22 9 -9 18 -22 20 -30 2 -8 11 -22 21 -30 10 -9 21 -26 25 -38 4 -13 12
-23 17 -23 6 0 7 -4 4 -10 -3 -5 1 -10 9 -10 9 0 16 -4 16 -10 0 -5 11 -20 25
-34 14 -14 25 -30 25 -36 0 -5 4 -10 9 -10 5 0 29 -20 53 -44 24 -24 54 -49
66 -55 13 -7 20 -16 17 -22 -4 -5 -2 -8 3 -7 11 3 45 -17 73 -44 9 -9 20 -14
23 -11 3 4 14 -1 23 -9 15 -14 145 -78 158 -78 2 0 16 -5 32 -11 29 -12 36
-14 91 -25 17 -3 32 -9 32 -13 0 -5 28 -9 113 -14 15 -1 27 -6 27 -11 0 -5 6
-3 14 3 8 7 17 8 19 3 9 -14 205 -5 292 14 17 4 38 7 48 8 9 0 17 5 17 10 0 5
3 6 7 3 3 -4 13 -1 21 6 11 8 14 8 9 0 -5 -7 4 -6 23 4 17 8 36 16 43 17 41 9
67 19 67 28 0 5 4 7 10 3 5 -3 18 3 29 14 13 13 21 16 25 8 3 -9 5 -9 5 1 1 6
8 12 16 12 8 0 15 5 15 11 0 5 4 8 8 5 5 -3 19 4 30 15 12 10 25 19 29 19 5 0
16 7 26 15 9 8 21 15 27 15 5 0 14 8 19 17 6 10 11 15 11 11 0 -4 16 8 35 28
19 19 35 32 35 29 0 -2 13 9 28 25 16 16 32 27 36 23 4 -4 4 0 1 9 -3 8 0 22
7 29 17 17 13 75 -7 121 -8 18 -14 29 -15 24 0 -5 -9 1 -20 14 -11 13 -23 20
-26 17 -4 -3 -13 1 -22 9 -11 11 -17 12 -22 4 -6 -9 -9 -9 -15 -1 -5 9 -10 9
-21 0 -8 -6 -14 -8 -14 -4 0 4 -7 2 -15 -5 -8 -7 -15 -9 -15 -4 -1 5 -10 -2
-20 -15 -11 -13 -20 -20 -20 -16 0 3 -18 -12 -41 -34 -22 -23 -45 -38 -51 -35
-7 4 -8 2 -4 -4 7 -11 -32 -38 -47 -34 -5 1 -6 -1 -3 -6 3 -5 -12 -17 -34 -27
-22 -10 -40 -22 -40 -28 0 -5 -7 -7 -15 -3 -8 3 -15 1 -15 -5 0 -6 -4 -7 -10
-4 -5 3 -10 3 -10 -2 0 -9 -67 -34 -92 -34 -10 0 -18 -4 -18 -8 0 -4 -6 -8
-13 -8 -7 0 -25 -3 -41 -7 -21 -5 -26 -4 -20 6 6 10 5 11 -8 1 -8 -7 -18 -10
-21 -6 -4 3 -7 1 -7 -7 0 -10 -3 -10 -14 -1 -8 7 -17 8 -20 3 -5 -9 -66 -7
-93 3 -7 2 -15 0 -19 -6 -4 -6 -11 -6 -20 2 -8 6 -14 8 -14 4 0 -4 -6 -2 -13
4 -8 6 -17 8 -20 5 -3 -4 -14 -3 -24 1 -10 5 -25 9 -33 11 -40 7 -97 29 -114
43 -16 13 -18 14 -11 1 8 -13 7 -13 -8 -1 -9 7 -17 10 -17 5 0 -5 -5 -1 -11 9
-6 9 -14 15 -20 12 -5 -4 -9 -1 -9 4 0 6 -9 11 -21 11 -11 0 -17 5 -14 10 3 6
-3 10 -14 10 -12 0 -21 5 -21 10 0 6 -7 10 -15 10 -8 0 -15 5 -15 10 0 6 -6
10 -13 10 -8 0 -27 13 -43 30 -16 16 -33 30 -37 30 -5 0 -21 13 -37 30 -15 16
-30 26 -34 23 -3 -3 -6 0 -6 8 0 8 -9 20 -20 27 -12 7 -18 18 -14 24 4 6 3 9
-2 6 -5 -3 -17 3 -27 14 -9 10 -14 18 -11 18 3 0 -2 7 -10 16 -9 8 -16 22 -16
30 0 8 -4 13 -8 10 -4 -2 -14 4 -21 16 -10 16 -10 19 1 12 7 -4 3 5 -10 20
-12 16 -19 32 -16 37 3 5 0 9 -6 9 -6 0 -9 4 -6 9 4 5 2 11 -4 13 -5 1 -11 12
-13 23 -2 11 -7 28 -12 38 -4 10 -5 21 -1 24 3 3 1 12 -5 20 -6 7 -8 13 -5 13
4 0 2 8 -3 18 -7 13 -6 23 1 30 7 7 8 12 2 12 -6 0 -11 34 -12 80 -2 50 2 80
8 80 7 0 7 6 0 20 -6 11 -7 20 -2 20 5 0 8 10 8 23 -1 12 1 29 5 38 5 9 11 29
14 45 9 45 10 47 51 142 13 29 24 56 25 60 2 4 11 16 21 26 9 10 15 23 12 27
-2 4 5 14 16 22 11 7 17 17 13 20 -3 4 -1 7 5 7 7 0 11 3 10 8 -3 7 5 18 78
94 24 26 44 44 44 41 0 -3 9 4 20 17 11 13 20 19 20 14 0 -5 4 -4 8 1 14 21
65 55 73 49 5 -3 9 -1 9 5 0 5 16 15 35 22 19 7 35 16 35 21 0 4 7 4 17 1 11
-4 14 -3 9 5 -4 8 -2 10 7 6 8 -3 18 0 22 5 3 6 11 9 16 6 5 -4 15 -3 22 2 6
4 21 9 32 10 11 1 34 5 50 9 41 8 226 11 230 4 2 -4 19 -7 38 -8 19 -1 46 -6
61 -12 15 -5 32 -8 37 -4 5 3 9 0 9 -7 0 -7 3 -10 6 -6 4 3 24 -3 46 -14 21
-11 44 -17 50 -13 7 4 8 3 4 -4 -4 -7 3 -14 19 -18 14 -3 22 -11 18 -17 -4 -6
-1 -7 6 -2 7 4 22 -2 37 -16 13 -12 24 -19 24 -14 0 4 8 -1 18 -12 9 -11 27
-25 40 -32 13 -7 20 -17 16 -24 -4 -7 -4 -9 1 -5 4 4 18 -4 31 -17 13 -14 29
-25 35 -25 7 0 9 -3 6 -7 -4 -3 5 -16 18 -29 14 -13 25 -26 25 -30 0 -13 45
-45 48 -35 2 6 8 9 13 5 5 -3 9 2 9 11 0 8 10 20 23 25 12 5 18 9 13 9 -12 1
34 41 48 41 6 0 4 5 -4 10 -13 8 -12 10 3 10 9 0 17 6 17 14 0 8 9 18 21 21
11 4 18 9 15 12 -3 3 16 26 42 50 26 25 46 49 44 54 -1 5 2 9 8 9 5 0 7 20 5
45 -2 33 0 43 8 39 9 -5 9 -4 0 6 -7 8 -9 20 -3 35 5 13 6 25 3 29 -9 9 -10
85 -1 80 4 -3 8 0 8 5 0 6 -4 11 -8 11 -4 0 -8 9 -8 20 0 11 4 20 9 20 4 0 5
6 1 12 -11 18 -12 48 -2 48 5 0 4 10 -3 21 -9 17 -8 20 2 14 8 -6 10 -4 4 5
-10 17 -13 90 -3 84 4 -3 8 0 8 5 0 6 -4 11 -8 11 -9 0 -7 53 3 69 3 6 1 11
-5 11 -6 0 -8 5 -3 13 11 18 12 36 2 43 -5 3 -5 13 1 25 8 13 7 19 0 19 -7 0
-8 6 0 19 6 12 6 22 1 26 -6 3 -6 17 -1 35 5 18 5 32 -1 35 -5 4 -5 14 1 26 8
13 7 19 0 19 -7 0 -8 6 -1 19 6 10 7 21 4 25 -7 7 -10 66 -3 66 3 0 5 11 5 25
0 14 -4 25 -9 25 -5 0 -4 6 3 13 8 10 7 17 -2 26 -8 8 -8 14 -2 19 11 7 12 48
1 59 -3 3 -1 12 5 20 9 10 8 13 0 13 -7 0 -9 5 -5 12 11 18 13 78 2 78 -5 0
-6 6 -2 12 12 19 12 48 1 48 -6 0 -5 5 1 13 10 12 8 89 -3 107 -3 6 -2 10 3
10 12 0 10 43 -3 52 -6 5 -5 8 3 8 8 0 10 5 6 12 -10 15 -13 48 -5 48 3 0 6
16 6 35 0 19 -3 35 -6 35 -4 0 -4 12 -1 28 7 24 7 49 2 62 -1 3 -3 14 -5 25
-2 11 -9 21 -14 23 -6 2 -11 8 -11 14 0 15 -24 35 -38 30 -6 -2 -12 0 -12 5 0
6 -38 9 -85 9 -47 -1 -85 -4 -85 -8z"/>
<path d="M3899 3887 c12 -15 11 -17 -5 -14 -11 1 -24 6 -31 10 -6 4 -14 3 -18
-3 -3 -5 -11 -10 -16 -10 -6 0 -7 5 -3 11 5 8 2 9 -11 2 -10 -6 -25 -8 -34 -6
-9 2 -27 0 -41 -6 -18 -7 -20 -10 -7 -10 18 -1 23 -16 9 -25 -11 -6 -9 -36 3
-55 5 -10 4 -12 -3 -7 -7 4 -12 1 -12 -9 0 -9 5 -13 11 -9 8 5 -4 -29 -15 -42
-1 0 6 -9 14 -19 14 -17 13 -18 -4 -12 -14 6 -16 4 -9 -5 6 -7 9 -23 8 -35 -1
-13 3 -23 9 -23 7 0 8 -3 1 -8 -6 -4 -10 -14 -10 -22 0 -8 -4 -18 -10 -22 -5
-4 -1 -8 10 -8 13 0 16 -3 8 -8 -8 -5 -4 -11 12 -18 20 -10 22 -9 17 4 -4 11
-2 13 9 6 19 -12 33 -12 41 1 5 6 8 6 8 -2 0 -7 10 -10 26 -7 14 3 33 -1 42
-8 9 -8 13 -8 9 -2 -4 7 0 14 8 18 10 3 15 -1 15 -11 0 -15 2 -15 13 2 8 10
17 14 20 8 3 -5 23 -8 43 -6 21 1 44 -3 53 -10 10 -8 13 -8 8 -1 -4 7 0 14 8
18 10 3 15 -1 15 -11 0 -15 2 -15 13 2 8 10 17 14 20 8 3 -5 23 -8 43 -6 21 1
44 -3 53 -10 10 -8 13 -8 8 -1 -4 7 0 14 8 18 10 3 15 -1 15 -11 0 -15 2 -15
13 2 8 10 17 14 20 8 3 -5 23 -8 43 -6 21 1 44 -3 53 -10 10 -8 13 -8 8 -1 -4
7 0 14 8 18 10 3 15 -1 15 -11 0 -15 2 -15 13 2 10 13 16 15 21 6 4 -6 11 -9
16 -6 4 3 10 -11 12 -30 2 -20 0 -35 -7 -35 -5 0 -3 -5 5 -10 11 -7 11 -10 2
-10 -10 0 -10 -5 -2 -20 8 -15 8 -20 -2 -20 -9 0 -9 -3 2 -10 8 -5 10 -10 5
-10 -10 0 -10 -92 -1 -117 3 -7 0 -13 -6 -13 -7 0 -6 -5 2 -15 10 -12 10 -15
-1 -15 -12 0 -12 -2 0 -9 10 -7 10 -10 1 -13 -9 -3 -8 -9 4 -21 16 -16 16 -17
-1 -17 -15 0 -16 -2 -3 -10 8 -5 10 -10 5 -10 -10 0 -10 -92 -1 -117 3 -7 1
-13 -5 -13 -6 0 -7 -6 -2 -12 4 -7 6 -24 4 -37 -1 -13 3 -28 11 -32 10 -7 8
-9 -7 -9 -17 0 -17 -2 -5 -10 11 -7 11 -10 2 -10 -10 0 -10 -5 -2 -20 8 -15 8
-20 -2 -20 -9 0 -9 -3 2 -10 13 -9 13 -10 0 -10 -13 0 -13 -1 0 -10 8 -5 10
-10 5 -10 -10 0 -10 -92 -1 -117 3 -7 0 -13 -6 -13 -7 0 -6 -5 2 -15 10 -12
10 -15 -1 -16 -8 0 -5 -4 6 -9 18 -8 18 -9 2 -9 -15 -1 -16 -5 -7 -21 8 -15 8
-20 -2 -20 -9 0 -9 -3 2 -10 8 -5 10 -10 5 -10 -10 0 -10 -92 -1 -117 3 -7 0
-13 -6 -13 -7 0 -6 -5 2 -15 10 -12 10 -15 -1 -16 -8 0 -5 -4 6 -9 18 -8 18
-9 2 -9 -15 -1 -16 -5 -7 -21 8 -15 8 -20 -2 -20 -9 0 -9 -3 2 -10 8 -5 10
-10 5 -10 -10 0 -10 -92 -1 -117 3 -7 0 -13 -6 -13 -7 0 -6 -5 2 -15 10 -12
10 -15 -1 -15 -11 0 -11 -2 1 -10 11 -7 11 -10 2 -10 -10 0 -10 -5 -2 -20 8
-15 8 -20 -2 -20 -9 0 -9 -3 2 -10 8 -5 10 -10 5 -10 -10 0 -10 -92 -1 -117 3
-7 0 -13 -6 -13 -7 0 -6 -5 2 -15 10 -12 10 -15 -1 -15 -12 0 -12 -2 0 -9 10
-7 10 -10 1 -13 -9 -3 -8 -9 4 -21 16 -16 16 -17 -1 -17 -15 0 -16 -2 -3 -10
8 -5 10 -10 5 -10 -10 0 -10 -92 -1 -117 3 -7 1 -13 -5 -13 -6 0 -7 -6 -2 -12
4 -7 6 -24 4 -37 -1 -13 3 -28 11 -32 10 -7 8 -9 -7 -9 -17 0 -17 -2 -5 -10
11 -7 11 -10 2 -10 -10 0 -10 -5 -2 -20 8 -15 8 -20 -2 -20 -9 0 -9 -3 2 -10
13 -9 13 -10 0 -10 -13 0 -13 -1 0 -10 8 -5 10 -10 5 -10 -10 0 -10 -92 -1
-117 3 -7 0 -13 -7 -13 -8 0 -6 -4 3 -10 12 -8 12 -10 1 -10 -10 0 -11 -3 -2
-14 9 -11 6 -13 -14 -11 -14 2 -25 -2 -25 -8 0 -7 -7 -3 -15 7 -15 20 -15 20
-15 0 0 -16 -2 -16 -10 -4 -7 12 -12 12 -21 3 -10 -10 -17 -9 -33 5 -12 10
-16 12 -11 3 6 -11 4 -13 -8 -8 -10 4 -17 1 -17 -6 0 -8 -3 -7 -9 2 -8 13 -12
13 -27 0 -11 -9 -15 -9 -10 -1 10 16 -16 16 -33 0 -11 -10 -13 -10 -7 0 4 6 2
12 -3 12 -6 0 -11 -6 -11 -12 0 -9 -3 -9 -9 1 -8 12 -12 12 -25 2 -14 -11 -16
-11 -16 5 0 12 -3 15 -8 8 -4 -6 -15 -10 -24 -8 -10 1 -18 -3 -18 -9 0 -8 -3
-7 -9 1 -11 17 -21 17 -32 0 -7 -10 -9 -10 -9 -1 0 13 -26 13 -47 0 -6 -4 -13
-1 -16 5 -4 10 -7 10 -18 1 -10 -10 -17 -9 -32 4 -10 10 -18 13 -17 8 5 -21
-1 -29 -10 -15 -7 12 -12 12 -21 3 -10 -10 -17 -9 -33 5 -11 9 -16 11 -12 4 9
-16 -6 -16 -23 1 -9 7 -11 7 -8 1 4 -7 0 -15 -9 -18 -12 -5 -15 -2 -10 9 4 11
2 14 -7 8 -6 -4 -21 -8 -31 -8 -11 0 -20 -8 -22 -18 -1 -11 2 -15 9 -10 7 4 6
-1 -2 -10 -11 -14 -11 -17 0 -17 8 0 6 -5 -6 -13 -14 -11 -15 -16 -5 -22 9 -6
11 -4 5 5 -5 9 -4 11 4 6 7 -5 8 -13 4 -19 -11 -15 -10 -38 1 -56 6 -10 5 -12
-2 -7 -7 4 -12 1 -12 -9 0 -9 5 -13 11 -9 8 4 8 1 2 -12 -11 -23 -11 -34 1
-53 7 -11 5 -13 -10 -7 -15 5 -16 4 -7 -5 6 -6 9 -18 6 -27 -5 -11 -3 -13 7
-7 10 6 11 4 4 -6 -12 -19 -12 -32 1 -45 15 -15 45 -25 45 -14 0 6 10 6 27 -1
19 -7 28 -6 33 2 6 8 9 7 13 -2 4 -11 6 -11 6 -1 1 10 6 10 21 2 15 -8 20 -8
20 1 0 8 4 8 15 -1 12 -10 15 -10 16 1 0 8 4 5 9 -6 8 -18 9 -18 9 -2 1 15 4
16 22 6 16 -8 23 -8 29 1 6 9 9 9 13 -1 4 -11 6 -11 6 -1 1 10 6 10 21 2 15
-8 20 -8 20 1 0 8 4 8 15 -1 12 -10 15 -10 16 1 0 8 4 5 9 -6 8 -18 9 -18 9
-2 1 15 4 16 22 6 16 -8 23 -8 29 1 6 9 9 9 13 -1 4 -11 6 -11 6 -1 1 10 6 10
21 2 15 -8 20 -8 20 1 0 8 4 8 15 -1 12 -10 15 -10 16 1 0 8 4 5 9 -6 8 -18 9
-18 9 -2 1 15 4 16 22 6 16 -8 23 -8 29 1 6 9 9 9 13 -1 4 -11 6 -11 6 -1 1
10 6 10 21 2 15 -8 20 -8 20 1 0 8 4 8 15 -1 12 -10 15 -10 16 1 0 8 4 5 9 -6
8 -18 9 -18 9 -2 1 10 6 15 12 12 17 -11 119 -11 119 0 0 6 5 3 10 -5 7 -11
10 -11 10 -2 0 10 5 10 20 2 12 -6 20 -7 20 -1 0 6 11 6 30 1 19 -5 30 -5 30
1 0 6 5 7 12 3 11 -7 55 -7 103 0 20 3 31 36 12 36 -6 0 -2 7 9 16 10 8 14 13
8 10 -7 -3 -14 5 -16 19 -4 19 -2 23 7 15 9 -8 11 -4 7 15 -2 15 -9 22 -16 18
-8 -5 -8 -3 0 8 13 18 16 57 4 64 -13 8 0 36 14 28 8 -4 8 -2 -1 7 -6 7 -9 19
-6 28 5 11 3 13 -7 7 -10 -6 -11 -4 -4 6 12 20 12 79 0 79 -5 0 -2 6 9 13 14
11 15 16 5 22 -9 6 -11 4 -5 -5 5 -9 4 -11 -4 -6 -6 4 -8 13 -4 19 11 18 11
77 -1 77 -5 0 -1 7 10 16 10 8 14 13 8 10 -7 -3 -15 1 -18 10 -3 8 -2 13 3 10
5 -3 11 3 14 14 3 11 1 22 -4 25 -4 3 -5 13 -2 22 5 12 3 14 -7 8 -10 -6 -11
-4 -4 6 12 20 12 79 0 79 -5 0 -1 7 10 16 10 8 14 13 8 10 -7 -3 -14 5 -16 19
-4 19 -2 23 7 15 9 -8 11 -4 7 15 -2 15 -9 22 -16 18 -8 -5 -8 -3 0 8 13 18
16 57 4 64 -13 8 0 36 14 28 8 -4 8 -2 -1 7 -6 7 -9 19 -6 28 5 11 3 13 -7 7
-10 -6 -11 -4 -4 6 12 20 12 79 0 79 -5 0 -2 6 9 13 14 11 15 16 5 22 -9 6
-11 4 -5 -5 5 -9 4 -11 -4 -6 -6 4 -8 13 -4 19 11 18 11 77 -1 77 -5 0 -1 7
10 16 10 8 14 13 8 10 -7 -3 -15 1 -18 10 -3 8 -2 13 3 10 5 -3 11 3 14 14 3
11 1 22 -4 25 -4 3 -5 13 -2 22 5 12 3 14 -7 8 -10 -6 -11 -4 -4 6 12 20 12
79 0 79 -5 0 -1 7 10 16 10 8 14 13 8 10 -7 -3 -14 5 -16 19 -4 19 -2 23 7 15
9 -8 11 -4 7 15 -2 15 -9 22 -16 18 -8 -5 -8 -3 0 8 13 18 16 57 4 64 -13 8 0
36 14 28 8 -4 8 -2 -1 7 -6 7 -9 19 -6 28 5 11 3 13 -7 7 -10 -6 -11 -4 -4 6
12 20 12 79 0 79 -5 0 -2 6 9 13 14 11 15 16 5 22 -9 6 -11 4 -5 -5 5 -9 4
-11 -4 -6 -6 4 -8 13 -4 19 11 18 11 77 -1 77 -5 0 -1 7 10 16 10 8 14 13 8
10 -7 -3 -15 1 -18 10 -3 8 -2 13 3 10 5 -3 11 3 14 14 3 11 1 22 -4 25 -4 3
-5 13 -2 22 5 12 3 14 -7 8 -10 -6 -11 -4 -4 6 12 20 12 79 0 79 -5 0 -1 7 10
16 10 8 14 13 8 10 -7 -3 -14 5 -16 19 -4 19 -2 23 7 15 9 -8 11 -4 7 15 -2
15 -9 22 -16 18 -8 -5 -8 -3 0 8 13 18 16 57 4 64 -13 8 0 36 14 28 8 -4 8 -2
-1 7 -6 7 -9 19 -6 28 5 11 3 13 -7 7 -10 -6 -11 -4 -4 6 12 20 12 79 0 79 -5
0 -2 6 9 13 14 11 15 16 5 22 -9 6 -11 4 -5 -5 5 -9 4 -11 -4 -6 -6 4 -8 13
-4 19 11 18 11 77 -1 77 -5 0 -1 7 10 16 10 8 14 13 8 10 -7 -3 -15 1 -18 10
-3 8 -2 13 3 10 5 -3 11 3 14 14 3 11 1 22 -4 25 -4 3 -5 13 -2 22 5 12 3 14
-7 8 -10 -6 -11 -4 -4 6 12 20 12 79 0 79 -5 0 -1 7 10 16 10 8 14 13 8 10 -7
-3 -15 1 -18 10 -3 8 -2 12 4 9 6 -4 10 8 10 27 0 25 -3 29 -10 18 -5 -8 -10
-10 -10 -4 0 6 3 14 8 18 11 12 10 76 -2 76 -8 0 -8 3 -1 8 13 9 17 55 5 47
-6 -3 -7 1 -3 10 4 13 1 16 -18 14 -13 -2 -30 0 -36 4 -7 5 -13 4 -13 0 0 -10
-134 -8 -149 2 -6 3 -11 2 -11 -3 0 -5 -25 -8 -56 -5 -41 3 -59 1 -65 -9 -7
-10 -9 -10 -9 0 0 7 -11 11 -29 10 -16 -1 -37 4 -48 12 -17 14 -17 14 -4 -3
12 -15 11 -17 -5 -14 -11 1 -24 6 -31 10 -6 4 -14 3 -18 -3 -3 -5 -11 -10 -16
-10 -6 0 -7 5 -3 11 5 8 2 9 -11 2 -10 -6 -27 -8 -37 -5 -11 3 -24 -1 -29 -9
-5 -8 -9 -9 -9 -2 0 7 -19 11 -50 11 -33 1 -48 -3 -44 -10 4 -5 -6 -2 -22 8
-15 11 -25 13 -21 7 5 -9 2 -13 -8 -13 -10 0 -13 5 -9 12 5 7 3 8 -7 3 -7 -5
-26 -8 -41 -7 -17 1 -28 -3 -28 -10 0 -10 -3 -9 -9 1 -5 8 -18 12 -29 9 -12
-3 -31 1 -44 10 -22 15 -22 15 -9 -1z"/>
<path d="M712 3855 c-7 -12 -12 -15 -12 -6 0 11 -3 11 -15 1 -8 -7 -15 -8 -15
-3 0 5 -7 10 -15 10 -8 0 -11 -5 -8 -10 4 -6 0 -8 -8 -5 -11 4 -14 -4 -14 -36
0 -22 5 -44 10 -48 6 -5 4 -8 -5 -8 -13 0 -13 -1 0 -10 8 -5 11 -10 5 -10 -6
0 -10 -28 -10 -65 0 -37 4 -65 10 -65 6 0 3 -5 -5 -10 -13 -9 -13 -10 0 -10 9
0 11 -3 5 -8 -5 -4 -10 -25 -10 -47 0 -22 5 -43 10 -47 6 -5 5 -8 -4 -8 -11 0
-11 -3 -1 -15 7 -8 8 -15 3 -15 -11 0 -9 -42 2 -59 3 -6 0 -11 -7 -11 -9 0 -9
-3 2 -10 12 -8 12 -10 1 -10 -11 0 -11 -3 -1 -15 7 -8 8 -15 3 -15 -11 0 -9
-42 2 -59 3 -6 0 -11 -7 -11 -9 0 -9 -3 2 -10 12 -8 12 -10 1 -10 -11 0 -11
-3 -1 -15 7 -8 8 -15 3 -15 -11 0 -9 -42 2 -59 3 -6 0 -11 -7 -11 -9 0 -9 -3
2 -10 12 -8 12 -10 1 -10 -11 0 -11 -3 -1 -15 7 -8 8 -15 3 -15 -11 0 -9 -42
2 -59 3 -6 0 -11 -7 -11 -9 0 -9 -3 2 -10 12 -8 12 -10 1 -10 -11 0 -11 -3 -1
-15 7 -8 8 -15 3 -15 -11 0 -9 -42 2 -59 3 -6 0 -11 -7 -11 -9 0 -9 -3 2 -10
12 -8 12 -10 1 -10 -11 0 -11 -3 -1 -15 7 -8 8 -15 3 -15 -11 0 -9 -42 2 -59
3 -6 0 -11 -7 -11 -9 0 -9 -3 2 -10 12 -8 12 -10 1 -10 -11 0 -11 -3 -1 -15 7
-8 8 -15 3 -15 -11 0 -9 -42 2 -59 3 -6 0 -11 -7 -11 -9 0 -9 -3 2 -10 12 -8
12 -10 1 -10 -11 0 -11 -3 -1 -15 7 -8 8 -15 3 -15 -11 0 -9 -42 2 -59 3 -6 0
-11 -7 -11 -9 0 -9 -3 2 -10 12 -8 12 -10 1 -10 -11 0 -11 -3 -1 -15 7 -8 8
-15 3 -15 -11 0 -9 -42 2 -59 3 -6 0 -11 -7 -11 -9 0 -9 -3 2 -10 12 -8 12
-10 1 -10 -11 0 -11 -3 -1 -15 7 -8 8 -15 3 -15 -11 0 -9 -42 2 -59 3 -6 0
-11 -7 -11 -9 0 -9 -3 2 -10 12 -8 12 -10 1 -10 -11 0 -11 -3 -1 -15 7 -8 9
-15 4 -15 -5 0 -9 -18 -9 -40 0 -22 5 -40 10 -40 6 0 3 -5 -5 -10 -13 -9 -13
-10 0 -10 9 0 11 -3 5 -8 -5 -4 -10 -34 -10 -67 0 -33 5 -63 10 -67 6 -5 4 -8
-5 -8 -13 0 -13 -1 0 -10 8 -5 11 -10 5 -10 -6 0 -10 -28 -10 -65 0 -37 4 -65
10 -65 6 0 3 -5 -5 -10 -13 -9 -13 -10 0 -10 9 0 11 -3 5 -8 -5 -4 -10 -35
-10 -70 0 -34 4 -62 10 -62 6 0 3 -5 -5 -10 -13 -9 -13 -10 0 -10 9 0 11 -3 5
-8 -5 -4 -10 -25 -10 -47 0 -22 5 -43 10 -47 6 -5 5 -8 -4 -8 -11 0 -11 -3 -1
-15 7 -8 8 -15 3 -15 -11 0 -9 -42 2 -59 3 -6 0 -11 -7 -11 -9 0 -9 -3 2 -10
12 -8 12 -10 1 -10 -11 0 -11 -3 -1 -15 7 -8 8 -15 3 -15 -11 0 -9 -42 2 -59
3 -6 0 -11 -7 -11 -9 0 -9 -3 2 -10 12 -8 12 -10 1 -10 -11 0 -11 -3 -1 -15 7
-8 8 -15 3 -15 -11 0 -9 -42 2 -59 3 -6 0 -11 -7 -11 -9 0 -9 -3 2 -10 12 -8
12 -10 1 -10 -11 0 -11 -3 -1 -15 7 -8 8 -15 3 -15 -11 0 -9 -42 2 -59 3 -6 0
-11 -7 -11 -9 0 -9 -3 2 -10 11 -7 11 -10 2 -10 -10 0 -10 -5 -2 -20 9 -16 8
-20 -7 -21 -14 0 -13 -2 5 -9 12 -5 22 -12 22 -15 0 -4 -4 -3 -10 0 -5 3 -10
2 -10 -3 0 -12 38 -23 45 -13 5 10 57 7 74 -4 10 -5 12 -4 7 3 -4 7 -2 12 3
12 6 0 11 -5 11 -12 0 -6 6 -4 13 7 11 14 16 15 22 5 6 -9 4 -11 -5 -5 -9 5
-11 4 -6 -4 4 -6 13 -8 19 -4 16 10 78 10 84 0 2 -4 10 -4 16 1 15 10 57 9 76
-2 10 -6 12 -5 7 2 -4 7 -2 12 3 12 6 0 11 -5 11 -12 0 -6 6 -4 13 7 11 14 16
15 22 5 6 -9 4 -11 -5 -5 -9 5 -11 4 -6 -4 4 -6 13 -8 19 -4 16 10 78 10 84 0
2 -4 10 -4 16 1 15 10 57 9 76 -2 10 -6 12 -5 7 2 -4 7 -2 12 3 12 6 0 11 -5
11 -12 0 -6 6 -4 13 7 11 14 16 15 22 5 6 -9 4 -11 -5 -5 -9 5 -11 4 -6 -4 4
-6 13 -8 19 -4 16 10 78 10 84 0 2 -4 10 -4 16 1 15 10 57 9 76 -2 10 -6 12
-5 7 2 -4 7 -2 12 3 12 6 0 11 -5 11 -12 0 -6 7 -3 16 8 8 10 12 13 8 5 -5
-11 -1 -12 20 -7 21 5 26 4 20 -6 -5 -9 -2 -8 10 1 15 13 19 13 27 0 5 -8 9
-9 9 -4 0 6 16 10 35 11 22 0 32 -3 28 -10 -3 -6 0 -5 8 2 16 14 33 16 24 2
-3 -5 -4 -10 -1 -10 19 0 40 86 24 96 -5 3 -4 12 3 20 9 11 9 14 -1 14 -9 0
-10 3 -1 13 6 8 8 17 4 21 -11 11 -10 40 2 48 6 5 5 8 -3 8 -9 0 -10 6 -5 18
11 21 10 43 -1 61 -5 8 -3 16 5 22 11 7 11 9 1 9 -9 0 -10 5 -2 19 10 20 -2
24 -27 8 -9 -6 -11 -3 -7 7 7 19 0 20 -26 4 -14 -9 -23 -10 -28 -3 -8 11 -47
13 -58 3 -4 -4 -14 -3 -23 1 -9 5 -18 10 -21 12 -3 1 -15 -3 -27 -10 -15 -7
-23 -8 -23 -1 0 6 -8 5 -20 -2 -17 -11 -22 -10 -30 1 -7 12 -11 12 -23 2 -10
-8 -17 -9 -22 -1 -4 7 -12 7 -26 0 -13 -8 -19 -7 -19 0 0 6 -8 5 -20 -2 -14
-9 -23 -10 -28 -3 -9 13 -35 18 -27 5 3 -5 1 -10 -4 -10 -6 0 -11 5 -11 11 0
8 -5 7 -16 -2 -13 -10 -17 -10 -25 2 -5 8 -9 9 -9 3 0 -6 -7 -11 -15 -11 -8 0
-15 5 -15 11 0 6 -4 6 -11 -1 -8 -8 -20 -8 -35 -3 -14 6 -26 6 -29 0 -4 -6
-14 -6 -28 2 -12 6 -24 10 -27 9 -3 -2 -13 -7 -23 -12 -14 -8 -19 -5 -26 13
-5 13 -6 29 -3 37 3 8 1 12 -4 8 -5 -3 -10 3 -10 14 0 10 4 19 8 19 10 0 6 30
-6 49 -6 9 -5 12 1 8 6 -4 11 4 11 18 0 14 -6 25 -12 25 -6 0 -4 5 4 10 8 5
11 10 7 10 -4 0 -2 10 4 23 11 19 10 20 -3 10 -12 -10 -15 -10 -15 2 0 8 3 15
7 15 3 0 6 9 7 20 1 11 -1 18 -5 16 -4 -3 -8 4 -8 15 0 10 4 19 8 19 10 0 6
30 -6 49 -7 11 -5 13 9 7 15 -5 16 -4 5 9 -7 8 -9 15 -5 15 4 0 1 8 -6 17 -12
14 -12 16 0 9 9 -6 12 -5 9 5 -3 8 -1 23 5 34 9 17 8 18 -5 8 -12 -10 -15 -10
-15 2 0 8 3 15 7 15 3 0 6 9 7 20 1 11 -1 18 -5 16 -4 -3 -8 4 -8 15 0 10 4
19 8 19 10 0 6 30 -6 49 -7 11 -5 13 9 7 15 -5 16 -4 5 9 -7 8 -9 15 -5 15 4
0 1 8 -6 17 -12 14 -12 16 0 9 9 -6 12 -5 9 5 -3 8 -1 23 5 34 9 17 8 18 -5 8
-12 -10 -15 -10 -15 2 0 8 3 15 7 15 3 0 6 9 7 20 1 11 -1 18 -5 16 -4 -3 -8
4 -8 15 0 10 3 19 7 19 4 0 6 19 4 42 -2 24 1 48 6 54 7 8 6 15 -2 20 -8 5 -9
3 -4 -6 5 -9 4 -11 -3 -6 -8 5 -9 13 -2 25 5 10 7 21 3 24 -3 4 0 13 6 21 9
11 9 16 0 22 -8 5 -9 3 -4 -6 5 -9 4 -11 -3 -6 -8 5 -9 13 -2 25 5 10 7 21 3
24 -3 4 0 13 6 21 9 11 9 16 0 22 -8 5 -9 3 -4 -6 5 -9 4 -11 -3 -6 -8 5 -9
13 -2 25 5 10 7 21 3 24 -3 4 0 13 6 21 9 11 9 16 0 22 -8 5 -9 3 -4 -6 5 -9
4 -11 -3 -6 -9 5 -7 15 5 34 15 22 15 25 2 15 -13 -10 -16 -10 -16 2 0 8 3 15
7 15 3 0 6 9 7 20 1 11 -1 18 -5 16 -4 -3 -8 4 -8 15 0 10 4 19 8 19 10 0 6
30 -6 49 -7 11 -5 13 9 7 15 -5 16 -4 5 9 -7 8 -9 15 -5 15 4 0 1 8 -6 17 -12
14 -12 16 0 9 9 -6 12 -5 9 5 -3 8 -1 23 5 34 9 17 8 18 -5 8 -12 -10 -15 -10
-15 2 0 8 3 15 7 15 3 0 6 9 7 20 1 11 -1 18 -5 16 -4 -3 -8 4 -8 15 0 10 4
19 8 19 10 0 6 30 -6 49 -7 11 -5 13 9 7 15 -5 16 -4 5 9 -7 8 -9 15 -5 15 4
0 1 8 -6 17 -12 14 -12 16 0 9 9 -6 12 -5 9 5 -3 8 -1 23 5 34 9 17 8 18 -5 8
-12 -10 -15 -10 -15 2 0 8 3 15 7 15 3 0 6 9 7 20 1 11 -1 18 -5 16 -4 -3 -8
4 -8 15 0 10 3 19 7 19 4 0 6 19 4 42 -2 24 1 48 6 54 7 8 6 15 -2 20 -8 5 -9
3 -4 -6 5 -9 4 -11 -3 -6 -8 5 -9 13 -2 25 5 10 7 21 3 24 -3 4 0 13 6 21 9
11 9 16 0 22 -8 5 -9 3 -4 -6 5 -9 4 -11 -3 -6 -8 5 -9 13 -2 25 5 10 7 21 3
24 -3 4 0 13 6 21 9 11 9 16 0 22 -8 5 -9 3 -4 -6 5 -9 4 -11 -3 -6 -8 5 -9
13 -2 25 5 10 7 21 3 24 -3 4 0 13 6 21 9 11 9 16 0 22 -8 5 -9 3 -4 -6 5 -9
4 -11 -4 -6 -9 6 -9 11 0 22 6 8 8 14 3 14 -5 0 -2 4 6 10 9 6 17 5 22 -3 5
-8 11 -8 16 -2 10 14 32 17 32 5 0 -7 7 -7 21 1 16 8 23 8 29 -1 6 -9 9 -9 13
1 4 10 6 10 6 2 1 -7 6 -13 12 -13 5 0 8 4 5 8 -2 4 4 8 15 8 10 0 19 -4 19
-8 0 -5 9 -4 21 2 17 9 23 8 36 -7 8 -10 12 -12 8 -5 -3 6 -3 12 2 13 4 0 20
2 36 4 16 2 27 -1 27 -8 0 -7 4 -6 10 3 6 10 10 11 10 3 0 -7 5 -13 11 -13 5
0 8 4 5 8 -2 4 4 8 15 8 10 0 19 -4 19 -8 0 -5 10 -4 21 3 16 8 23 8 29 -1 6
-9 9 -9 13 1 4 10 6 10 6 2 1 -7 6 -13 12 -13 5 0 8 4 5 8 -2 4 4 8 15 8 10 0
19 -4 19 -8 0 -5 10 -4 21 3 16 8 23 8 29 -1 6 -9 9 -9 13 1 4 10 6 10 6 2 1
-7 6 -13 12 -13 5 0 8 4 5 8 -2 4 4 8 15 8 10 0 19 -4 19 -8 0 -5 10 -4 21 3
16 8 23 8 29 -1 6 -9 9 -9 13 1 4 10 6 10 6 2 1 -7 6 -13 13 -13 6 0 9 3 5 6
-3 4 1 13 9 21 12 12 12 18 2 30 -9 12 -9 16 3 24 11 7 11 9 0 9 -11 0 -11 3
-1 15 10 12 10 15 0 15 -9 0 -9 4 -2 13 13 16 13 29 -1 45 -8 10 -7 16 4 23
11 7 11 9 0 9 -11 0 -11 3 -1 15 9 11 9 15 1 15 -7 0 -9 5 -4 13 11 18 12 36
2 43 -6 3 -5 11 2 20 9 11 8 15 -5 20 -9 3 -13 11 -9 18 4 6 0 6 -9 -2 -13
-10 -17 -10 -21 0 -4 10 -6 10 -6 -1 -1 -11 -4 -11 -16 -1 -8 6 -20 8 -27 4
-17 -11 -80 -11 -95 -1 -6 4 -14 3 -18 -3 -4 -7 -12 -7 -26 0 -14 8 -19 7 -19
-2 0 -9 -3 -9 -12 0 -6 6 -18 8 -27 4 -20 -9 -42 -9 -58 1 -6 4 -14 3 -18 -3
-4 -7 -12 -7 -26 0 -14 8 -19 7 -19 -2 0 -9 -3 -9 -12 0 -6 6 -18 8 -27 4 -20
-9 -42 -9 -58 1 -6 4 -14 3 -18 -3 -4 -7 -12 -7 -26 0 -14 8 -19 7 -19 -2 0
-9 -3 -9 -12 0 -6 6 -18 8 -27 4 -20 -9 -42 -9 -58 1 -6 4 -14 3 -18 -3 -4 -7
-12 -7 -26 0 -14 8 -19 7 -19 -1 0 -8 -4 -8 -15 1 -8 6 -20 8 -27 4 -17 -11
-39 -11 -60 -1 -12 5 -18 4 -18 -4 0 -8 -4 -8 -15 1 -9 8 -20 9 -27 4 -19 -13
-53 -10 -50 4 1 9 -6 8 -22 -3 -23 -15 -25 -15 -28 2 -3 17 -5 17 -16 -2z"/>
</g>
</svg>
