<?xml version="1.0" standalone="no"?>
<!DOCTYPE svg PUBLIC "-//W3C//DTD SVG 20010904//EN"
 "http://www.w3.org/TR/2001/REC-SVG-20010904/DTD/svg10.dtd">
<svg version="1.0" xmlns="http://www.w3.org/2000/svg"
 width="1254.000000pt" height="1254.000000pt" viewBox="0 0 1254.000000 1254.000000"
 preserveAspectRatio="xMidYMid meet">
<metadata>
Created by potrace 1.15, written by Peter Selinger 2001-2017
</metadata>
<g transform="translate(0.000000,1254.000000) scale(0.100000,-0.100000)"
fill="#FFFFFF" stroke="none">
<path d="M4761 7691 c-19 -12 -26 -218 -12 -341 6 -52 16 -144 21 -205 6 -60
17 -141 25 -180 21 -100 62 -292 90 -420 47 -214 66 -308 62 -311 -2 -2 -39
33 -82 77 -111 112 -220 179 -365 225 -25 8 -58 18 -75 24 -111 35 -330 56
-695 64 -447 11 -756 -39 -1049 -169 -276 -122 -516 -327 -675 -574 -45 -70
-87 -197 -93 -282 -12 -167 68 -386 224 -612 88 -127 190 -233 293 -306 194
-137 362 -189 574 -178 141 7 243 31 377 85 94 38 233 115 245 134 15 24 -12
19 -79 -15 -207 -103 -377 -147 -572 -147 -80 0 -229 27 -284 51 -24 10 -48
19 -53 19 -6 0 -27 13 -47 28 -20 16 -57 41 -83 56 -27 15 -48 31 -48 36 0 5
-8 11 -19 15 -62 19 -261 276 -345 443 -73 147 -101 249 -101 372 0 97 3 110
31 170 71 148 219 328 353 429 177 131 292 197 461 261 122 46 170 58 385 94
254 44 921 26 1150 -31 123 -30 267 -97 350 -163 69 -55 163 -174 217 -275 19
-37 68 -188 68 -212 0 -28 25 -92 42 -109 9 -9 31 -17 49 -17 30 -2 34 1 33
23 -1 14 -6 39 -12 55 -22 62 -60 192 -76 265 -33 147 -36 161 -36 187 0 15
-4 40 -10 57 -5 17 -26 105 -45 196 -20 91 -54 239 -76 330 -64 264 -67 280
-81 375 -7 50 -12 179 -13 287 0 109 -2 198 -5 198 -3 0 -11 -4 -19 -9z"/>
<path d="M7830 7351 c-139 -36 -447 -175 -620 -279 -19 -12 -51 -30 -71 -41
-19 -11 -93 -58 -163 -106 -70 -48 -140 -87 -154 -88 -28 -2 -29 0 -71 139
-12 39 -33 84 -47 99 -23 25 -30 27 -78 23 -77 -6 -202 -75 -374 -205 -48 -37
-82 -43 -82 -15 -1 28 -35 95 -65 124 -72 72 -208 120 -372 133 -132 11 -183
-4 -249 -69 -78 -79 -97 -138 -98 -306 -1 -119 1 -139 20 -170 27 -47 82 -66
142 -51 37 10 177 101 207 136 6 6 30 27 54 45 59 45 120 99 150 133 14 15 30
27 36 27 5 -1 19 -20 30 -43 18 -37 40 -56 103 -83 2 -1 -8 -19 -23 -39 -26
-39 -31 -55 -17 -55 18 0 51 32 66 64 11 22 35 46 69 66 28 17 95 61 147 97
172 120 254 158 284 134 8 -7 26 -57 42 -112 31 -111 54 -144 107 -154 31 -6
44 -1 124 54 308 212 359 243 578 354 98 49 261 114 335 133 65 16 144 18 171
4 23 -13 44 -60 53 -123 10 -65 54 -100 122 -95 84 5 83 68 -1 68 -36 0 -43
11 -70 100 -19 63 -49 95 -103 109 -51 15 -105 12 -182 -8z m-1994 -290 c103
-21 154 -44 154 -69 0 -24 -179 -196 -290 -279 -176 -130 -229 -140 -250 -48
-31 131 11 292 93 359 70 57 147 67 293 37z"/>
<path d="M8895 7326 c-33 -7 -100 -27 -150 -44 -49 -17 -102 -33 -117 -36 -31
-7 -39 -40 -12 -50 9 -3 67 12 128 34 112 41 199 60 269 60 31 0 37 -4 37 -20
0 -28 -70 -95 -165 -157 -120 -79 -125 -83 -125 -99 0 -29 31 -13 222 114 102
67 146 139 119 191 -10 18 -20 21 -79 20 -37 -1 -94 -7 -127 -13z"/>
<path d="M9205 6651 c-11 -4 -58 -11 -105 -14 -105 -8 -281 -43 -462 -91 -76
-21 -164 -41 -195 -47 -217 -37 -395 -58 -600 -69 -131 -7 -205 -16 -260 -31
-43 -12 -84 -23 -91 -25 -18 -5 -27 -33 -14 -46 7 -7 40 -7 109 1 54 7 163 14
243 17 151 5 455 36 550 55 72 15 358 87 390 98 29 10 118 34 210 56 36 9 125
22 198 29 74 8 138 18 144 24 5 5 8 18 6 28 -2 15 -13 19 -53 21 -28 1 -59 -1
-70 -6z"/>
</g>
</svg>
